<?xml version="1.0"?>
<svg xmlns="http://www.w3.org/2000/svg" viewBox="0 0 100 100"><g id="Layer_3" data-name="Layer 3"><path id="_1" data-name="1" d="M56.77,7.15A2,2,0,0,1,58,9V63.2L75.46,45.75a2,2,0,0,1,2.82,0l8.49,8.48a2,2,0,0,1,0,2.83L51.41,92.41a2,2,0,0,1-2.82,0L13.23,57.06a2,2,0,0,1,0-2.83l8.49-8.48a2,2,0,0,1,2.82,0L42,63.2V9a2,2,0,0,1,1.23-1.85,2,2,0,0,1,2.18.44L50,12.17l4.59-4.58A2,2,0,0,1,56,7,2.07,2.07,0,0,1,56.77,7.15Zm-8.18,9.26L46,13.83V68a2,2,0,0,1-1.23,1.85,2,2,0,0,1-2.18-.44L23.13,50l-5.66,5.65L50,88.17,82.53,55.64,76.87,50,57.41,69.44a2,2,0,0,1-2.18.44A2,2,0,0,1,54,68V13.83l-2.59,2.58a2,2,0,0,1-2.82,0Z"/></g></svg>
