<svg width="1080" height="1080" viewBox="0 0 1080 1080" fill="none" xmlns="http://www.w3.org/2000/svg">
<g clip-path="url(#clip0_354_561)">
<path d="M497 1049.2L516.6 646L382.2 1026.8L303.8 996L477.4 629.2L208.6 931.6L147 870L449.4 601.2L82.6 774.8L51.8 696.4L432.6 562L29.4 581.6V497.6L432.6 520L51.8 382.8L82.6 307.2L449.4 480.8L147 209.2L208.6 150.4L477.4 450L303.8 85.9999L382.2 52.4L516.6 436L497 30H581L558.6 433.2L695.8 52.4L771.4 85.9999L597.8 450L869.4 150.4L928.2 209.2L628.6 480.8L992.6 307.2L1026.2 382.8L642.6 520L1048.6 497.6V581.6L642.6 562L1026.2 696.4L992.6 774.8L628.6 601.2L928.2 870L869.4 931.6L597.8 629.2L771.4 996L695.8 1026.8L558.6 646L581 1049.2H497Z" fill="#0A0A0A"/>
</g>
<defs>
<clipPath id="clip0_354_561">
<rect width="1080" height="1080" fill="white"/>
</clipPath>
</defs>
</svg>
