<svg id="Capa_1" enable-background="new 0 0 512 512" height="512" viewBox="0 0 512 512" width="512" fill="#e08c29" xmlns="http://www.w3.org/2000/svg"><g><g id="Layer_x0020_1_60_" clip-rule="evenodd" fill-rule="evenodd"><circle cx="256" cy="315.048" r="9.905"/>


<path fill="#e08c29" d="m9.905 465.143h120.762c-.762-2.286-1.143-4.952-1.143-7.238-.762-14.857 9.905-27.429 24.762-28.952 21.333-1.905 37.333-15.238 37.333-37.333v-32.762h-163.048c-15.619-.001-28.571-12.953-28.571-28.572v-274.286c0-15.619 12.952-28.571 28.571-28.571h454.857c16 0 28.571 12.952 28.571 28.571v274.286c0 15.619-12.571 28.571-28.571 28.571h-162.666v32.762c0 22.095 15.619 35.429 36.952 37.333 15.238 1.524 25.524 14.095 25.143 28.952-.381 2.286-.762 4.952-1.524 7.238h120.762c12.952 0 12.952 19.429 0 19.429-164.19 0-328 0-492.19 0-12.572 0-12.572-19.428 0-19.428zm9.524-193.524h473.143v-215.619c0-4.952-3.81-9.143-9.143-9.143h-454.858c-4.952 0-9.143 4.19-9.143 9.143zm473.142 19.429h-473.142v39.238c0 4.952 4.19 9.143 9.143 9.143h454.857c5.333 0 9.143-4.19 9.143-9.143zm-335.619 174.095h198.095c10.667 0 11.048-16 .762-16.762-30.476-3.048-54.857-23.619-54.857-56.762v-32.762h-89.905v32.762c0 33.143-24.381 53.714-54.857 56.762-10.285.762-9.523 16.762.762 16.762z"/><g id="_2013814322304">

<path fill="#e08c29" d="m66.286 91.048h254.476c12.571 0 12.571 19.429 0 19.429h-254.476c-12.953-.001-12.953-19.429 0-19.429z"/>

<path fill="#e08c29" d="m66.286 129.905h127.238c12.952 0 12.952 19.429 0 19.429h-127.238c-12.953-.001-12.953-19.429 0-19.429z"/>

<path fill="#e08c29" d="m66.286 168.762h254.476c12.571 0 12.571 19.429 0 19.429h-254.476c-12.953-.001-12.953-19.429 0-19.429z"/>

<path fill="#e08c29" d="m66.286 207.619h127.238c12.952 0 12.952 19.429 0 19.429h-127.238c-12.953 0-12.953-19.429 0-19.429z"/></g></g></g></svg>