<svg fill="#434548" enable-background="new 0 0 512 512" height="512" viewBox="0 0 512 512" width="512" xmlns="http://www.w3.org/2000/svg">
<path fill="#434548" d="m499.379 131.673c0-17.802-6.846-32.417-19.797-42.268-12.298-9.353-29.511-14.095-51.163-14.095-22.537 0-49.052 5.078-77.763 14.446-23.992-45.009-56.2-69.756-90.967-69.756-34.766 0-66.975 24.747-90.967 69.756-28.711-9.368-55.226-14.446-77.764-14.446-21.651 0-38.865 4.742-51.163 14.095-12.95 9.851-19.795 24.467-19.795 42.268 0 34.64 25.962 80.881 70.073 128.327-44.112 47.446-70.073 93.688-70.073 128.327 0 17.802 6.846 32.417 19.796 42.268 12.298 9.353 29.511 14.095 51.163 14.095 22.538 0 49.052-5.078 77.764-14.445 23.992 45.009 56.2 69.755 90.966 69.755 34.767 0 66.975-24.746 90.968-69.756 28.711 9.367 55.225 14.445 77.763 14.445 21.651 0 38.864-4.742 51.162-14.096 12.951-9.85 19.797-24.466 19.797-42.268-.001-34.64-25.962-80.881-70.073-128.326 44.111-47.445 70.072-93.686 70.073-128.326zm-31.904-26.348c8.01 6.092 11.904 14.711 11.904 26.349-.001 29.438-23.978 70.849-63.971 113.938-9.141-9.118-18.915-18.242-29.275-27.299-3.716-40.534-12.843-78.367-26.682-110.277 25.708-8.234 49.253-12.725 68.968-12.725 17.179 0 30.318 3.369 39.056 10.014zm-187.15 272.914c23.248-13.819 46.519-29.47 69.094-46.64 4.904-3.729 9.709-7.487 14.422-11.265-4.442 31.209-12.344 60.147-23.324 85.036-19.345-7.256-39.619-16.391-60.192-27.131zm56.987-62.559c-25.158 19.134-51.459 36.422-77.622 51.305-26.164-14.883-52.465-32.171-77.623-51.305-10.281-7.819-20.15-15.775-29.563-23.801-.758-10.467-1.15-21.11-1.15-31.879s.392-21.413 1.15-31.879c9.413-8.025 19.282-15.982 29.563-23.801 25.158-19.134 51.459-36.422 77.623-51.304 26.163 14.882 52.464 32.17 77.622 51.304 10.281 7.82 20.15 15.776 29.564 23.802.758 10.466 1.149 21.11 1.149 31.878s-.392 21.412-1.149 31.878c-9.414 8.025-19.283 15.982-29.564 23.802zm-158.45 89.691c-10.98-24.889-18.882-53.827-23.324-85.036 4.713 3.777 9.517 7.535 14.421 11.265 22.576 17.17 45.846 32.82 69.094 46.64-20.573 10.739-40.846 19.874-60.191 27.131zm-47.315-132.174c-4.712-4.397-9.281-8.8-13.69-13.197 4.409-4.397 8.978-8.8 13.69-13.198-.124 4.379-.193 8.779-.193 13.198s.069 8.817.193 13.197zm107.507-131.436c-23.249 13.819-46.519 29.471-69.095 46.64-4.904 3.729-9.708 7.487-14.421 11.264 4.442-31.209 12.344-60.147 23.324-85.036 19.345 7.256 39.618 16.392 60.192 27.132zm101.463-27.132c10.98 24.888 18.882 53.827 23.324 85.037-4.713-3.778-9.518-7.535-14.422-11.265-22.575-17.169-45.846-32.821-69.094-46.64 20.573-10.74 40.847-19.876 60.192-27.132zm47.315 132.174c4.712 4.397 9.28 8.8 13.689 13.197-4.409 4.396-8.977 8.799-13.689 13.197.124-4.38.193-8.778.193-13.197s-.069-8.818-.193-13.197zm-128.143-206.803c26.387 0 51.755 20.011 71.873 56.495-23.133 8.761-47.371 20.043-71.873 33.479-24.502-13.436-48.741-24.718-71.873-33.479 20.118-36.484 45.486-56.495 71.873-56.495zm-219.689 91.673c0-11.638 3.894-20.256 11.904-26.348 8.736-6.645 21.876-10.014 39.054-10.014 19.715 0 43.261 4.491 68.969 12.725-13.839 31.91-22.965 69.743-26.681 110.276-10.361 9.057-20.136 18.181-29.276 27.299-39.993-43.089-63.97-84.5-63.97-113.938zm11.903 283.002c-8.009-6.092-11.903-14.71-11.903-26.348 0-29.438 23.977-70.85 63.971-113.938 9.14 9.118 18.915 18.242 29.276 27.3 3.716 40.533 12.842 78.366 26.681 110.275-25.709 8.234-49.254 12.726-68.969 12.726-17.179-.001-30.319-3.37-39.056-10.015zm207.786 65.325c-26.387 0-51.755-20.012-71.873-56.495 23.132-8.762 47.371-20.043 71.873-33.479 24.502 13.436 48.74 24.718 71.873 33.479-20.118 36.483-45.486 56.495-71.873 56.495zm219.69-91.674c0 11.639-3.895 20.257-11.904 26.349-8.736 6.646-21.877 10.015-39.055 10.015-19.715 0-43.26-4.491-68.969-12.726 13.839-31.909 22.965-69.742 26.682-110.276 10.36-9.057 20.136-18.181 29.275-27.299 39.993 43.088 63.97 84.499 63.971 113.937z"/>
<path fill="#434548" d="m255 210c-24.813 0-45 20.187-45 45s20.187 45 45 45 45-20.187 45-45-20.187-45-45-45zm0 70c-13.785 0-25-11.215-25-25s11.215-25 25-25 25 11.215 25 25-11.215 25-25 25z"/></svg>